<!-- Generated by IcoMoon.io -->
<svg version="1.1" xmlns="http://www.w3.org/2000/svg" width="31" height="32" viewBox="0 0 31 32">
<title>group-1</title>
<path fill="#ff6b09" d="M7.953 23.273h12.362c0.062-1.41-0.040-3.749-0.906-4.862l-0.031-0.040-1.894-0.951c0.041-0.139 0.062-0.266 0.070-0.359 0.002-0.019 0.003-0.041 0.003-0.063 0-0.090-0.018-0.176-0.051-0.254l0.002 0.004c-0.312-0.748-0.974-1.141-1.337-1.309 0.111-0.223 0.182-0.463 0.217-0.708 0.21-0.060 0.372-0.226 0.425-0.435l0.001-0.004 0.221-0.898c0.012-0.044 0.018-0.095 0.018-0.147 0-0.116-0.033-0.225-0.090-0.318l0.002 0.003c-0.037-0.060-0.082-0.111-0.134-0.153l-0.001-0.001c0.623-1.416-0.421-2.751-0.478-2.822-1.13-1.222-2.559-0.994-2.634-0.98-2.061 0.432-2.857 2.011-2.408 3.864-0.097 0.107-0.157 0.251-0.157 0.408 0 0.052 0.006 0.102 0.019 0.15l-0.001-0.004 0.222 0.899c0.054 0.216 0.218 0.378 0.422 0.437 0.066 0.456 0.256 0.86 0.535 1.185l-0.003-0.003v0.712c-2.958 1.515-1.084 0.548-3.454 1.748-0.005 0.022-1.112 1.199-0.948 4.688l0.010 0.213zM19.885 22.826h-2.034v-0.855l1.346-3.081c0.674 1.119 0.699 3.255 0.689 3.935zM17.109 17.023c-0.079 0.902-0.573 0.63-0.878 1.324-0.24-0.264-0.313-0.581-0.248-0.92 0.117-0.622-0.263-0.807-0.169-1.461l0.014-0.015v-0.002c0.008-0.009 0.083-0.098 0.105-0.126 0.805 0.351 1.193 1.003 1.177 1.2zM12.79 16.314c0.366 0.258 0.821 0.413 1.312 0.413 0.47 0 0.906-0.141 1.269-0.383l-0.008 0.005c0.052 0.514 0.252 0.617 0.182 0.995-0.012 0.059-0.021 0.13-0.025 0.203l-0 0.005-1.386 1.562-1.771-1.997 0.428-0.223v-0.579zM12.233 14.403v-2.387c0.215-0.399 0.51-0.688 0.875-0.862 0.978 0.554 2.105 1.38 2.86 2.212-0.001 1.059 0.003 1.062-0.004 1.149l-0 0.006c-0.059 0.962-0.85 1.759-1.864 1.759-0.986 0-1.804-0.774-1.863-1.768-0.002-0.028-0.003-0.061-0.003-0.093 0-0.005 0-0.010 0-0.015v0.001zM11.957 17.332l2.177 2.454 1.462-1.647c0.033 0.096 0.080 0.187 0.134 0.275l-1.595 1.995-2.378-2.975 0.202-0.102zM16.414 14.043v-0.691l0.166-0.191c0.009 0.35 0.047-0.063-0.166 0.882zM13.798 9.415c0.089 0.006 1.276-0.181 2.215 0.833 0.037 0.046 0.801 1.031 0.494 2.108-0.105-0.479-0.288-1.094-0.578-1.386l-0.316 0.315c0.286 0.289 0.474 1.171 0.545 1.628-1.311-1.372-3.002-2.24-3.026-2.254-0.085 0.053-0.8 0.189-1.32 1.199l-0.025 0.048v0.742l-0.066 0.001c-0.33-1.594 0.302-2.861 2.076-3.233zM11.675 13.108l0.112 0.456v0.479l-0.187-0.757c-0.028-0.113 0.056-0.155 0.074-0.178zM11.347 17.638l2.786 3.485 1.885-2.358c0.205 0.184 0.304 0.21 0.738 0.433l-0.146-0.498c-0.037-0.126 0.11-0.329 0.199-0.422 0.2-0.11 0.364-0.262 0.485-0.446l0.003-0.005 1.538 0.772-1.432 3.277v0.949h-6.542v-0.949l-1.432-3.277 1.917-0.962zM9.071 18.891l1.346 3.080v0.854h-2.035c-0.010-0.68 0.015-2.815 0.689-3.934z"></path>
<path fill="none" stroke="#ff6b09" stroke-linejoin="miter" stroke-linecap="butt" stroke-miterlimit="4" stroke-width="0.6154" d="M31.077 4.615v-4.308h-30.769v31.385h30.769v-4.308"></path>
</svg>
