<!-- Generated by IcoMoon.io -->
<svg version="1.1" xmlns="http://www.w3.org/2000/svg" width="23" height="32" viewBox="0 0 23 32">
<title>fire</title>
<path fill="#ff6b09" d="M21.909 16.593c-0.285-0.636-0.675-1.261-1.248-1.984-1.442-1.813-1.882-5.856-1.887-5.895-0.022-0.194-0.155-0.353-0.334-0.411l-0.003-0.001c-0.045-0.015-0.096-0.023-0.15-0.023-0.146 0-0.277 0.063-0.368 0.164l-0 0c-1.721 1.924-0.997 4.896-0.606 6.084 0.107 0.325 0.224 0.708 0.308 1.097 0.635 3.136-0.592 4.557-0.88 4.843-0.279 0.078-0.469 0.039-0.645-0.149-0.607-0.665-0.807-2.842-0.523-5.678 0.023-0.194 0.036-0.419 0.036-0.647 0-0.33-0.028-0.653-0.080-0.968l0.005 0.034c-0.598-3.486-2.791-5.723-3.349-6.507-1.536-2.269-1.692-6.046-1.696-6.080-0.011-0.261-0.225-0.468-0.488-0.468-0.102 0-0.198 0.032-0.276 0.086l0.002-0.001c-2.562 1.742-2.342 5.936-1.985 8.277 0.083 0.544 0.244 1.095 0.523 1.794 0.992 2.496-0.195 5.722-0.205 5.749-0.011 0.030-0.020 0.053-0.025 0.083-0.151 0.796-0.405 1.27-0.69 1.27-0.033-0.001-0.065-0.006-0.095-0.016l0.002 0.001c-0.347-0.073-0.528-0.441-0.533-0.761-0.019-4.135-4.17-5.527-4.213-5.542s-0.096-0.023-0.149-0.023c-0.147 0-0.279 0.066-0.369 0.169l-0.001 0.001c-0.075 0.084-0.12 0.195-0.12 0.317 0 0.079 0.019 0.154 0.053 0.219l-0.001-0.003c0.049 0.101 0.205 0.547 0.098 2.123-0.102 1.521-0.376 2.939-0.803 4.288l0.035-0.128c-0.988 3.221-0.832 6.271-0.821 6.416 0.759 8.258 12.635 9.705 19.682 5.053 0.773-0.51 1.404-1.091 1.868-1.731 2.602-3.588 1.071-8.461-0.068-11.051zM3.843 24.48c0 0.008 0.001 0.016 0.001 0.025 0 0.259-0.203 0.471-0.459 0.484l-0.001 0h-0.029c-0.001 0-0.003 0-0.004 0-0.258 0-0.469-0.201-0.485-0.454l-0-0.001c-0.044-0.707-0.034-1.45 0.019-2.254 0.022-0.254 0.234-0.452 0.492-0.452 0.011 0 0.021 0 0.032 0.001l-0.001-0c0.256 0.017 0.456 0.229 0.456 0.487 0 0.011-0 0.022-0.001 0.032l0-0.001c-0.053 0.766-0.064 1.465-0.019 2.133zM4.082 20.185c-0.030 0.242-0.234 0.427-0.482 0.427-0.001 0-0.001 0-0.002 0h0c-0.020 0-0.039 0-0.064-0.005-0.243-0.032-0.428-0.237-0.428-0.486 0-0.018 0.001-0.036 0.003-0.054l-0 0.002 0.235-1.872c0.035-0.241 0.241-0.425 0.489-0.425 0.021 0 0.041 0.001 0.062 0.004l-0.002-0c0.269 0.034 0.459 0.276 0.425 0.543l-0.235 1.867zM18.601 6.634c-0.236-0.036-0.414-0.237-0.414-0.48 0-0.026 0.002-0.051 0.006-0.075l-0 0.003c0.032-0.197 0.208-1.205 0.687-1.713 0.090-0.095 0.216-0.153 0.356-0.153 0.13 0 0.247 0.050 0.335 0.132l-0-0c0.197 0.182 0.207 0.49 0.021 0.685-0.203 0.214-0.374 0.829-0.433 1.197-0.039 0.234-0.24 0.411-0.482 0.411-0.027 0-0.053-0.002-0.078-0.006l0.003 0zM0.779 9.049c-0.095-0.361-0.327-0.956-0.551-1.15-0.102-0.089-0.166-0.219-0.166-0.364 0-0.123 0.046-0.235 0.122-0.32l-0 0c0.090-0.102 0.222-0.166 0.368-0.166 0.124 0 0.237 0.046 0.323 0.121l-0.001-0c0.527 0.458 0.802 1.444 0.851 1.637 0.010 0.036 0.015 0.077 0.015 0.12 0 0.226-0.155 0.416-0.364 0.469l-0.003 0.001c-0.036 0.010-0.078 0.015-0.121 0.015-0.226 0-0.416-0.153-0.473-0.361l-0.001-0.003z"></path>
</svg>
