<!-- Generated by IcoMoon.io -->
<svg version="1.1" xmlns="http://www.w3.org/2000/svg" width="31" height="32" viewBox="0 0 31 32">
<title>group-3</title>
<path fill="#ff6b09" d="M7.942 14.958c0 0.165-0.25 0.165-0.25 0 0-3.502 2.84-6.342 6.342-6.342 3.504 0 6.342 2.84 6.342 6.342 0 0.165-0.249 0.165-0.249 0 0-2.367-3.89-2.369-3.89 0 0 0.165-0.256 0.165-0.256 0 0-2.361-3.896-2.361-3.896 0 0 0.165-0.256 0.165-0.256 0 0-2.357-3.888-2.373-3.888 0zM11.853 14.038c0.068-1.362 0.282-2.584 0.593-3.517 0.249-0.742 0.563-1.304 0.919-1.62-2.674 0.292-4.839 2.319-5.323 4.949 0.921-1.328 3.047-1.222 3.811 0.189zM15.963 13.977c-0.069-1.31-0.277-2.482-0.577-3.376-0.772-2.314-1.931-2.314-2.704 0-0.299 0.894-0.506 2.066-0.576 3.376 0.831-1.412 3.026-1.412 3.857 0zM20.027 13.85c-0.482-2.629-2.647-4.657-5.323-4.949 0.358 0.316 0.671 0.879 0.919 1.62 0.311 0.933 0.526 2.154 0.593 3.517 0.768-1.418 2.9-1.502 3.811-0.189zM13.202 17.86v-1.288c-0.232 0.154-0.414 0.392-0.414 0.683 0 0.283 0.186 0.47 0.414 0.605zM13.452 18.26c-0.445-0.204-0.913-0.442-0.913-1.005 0-0.581 0.442-0.872 0.913-1.089v2.094zM14.867 19.803v1.303c0.235-0.156 0.419-0.395 0.419-0.686 0-0.286-0.189-0.479-0.419-0.617zM14.619 19.402c0.446 0.206 0.918 0.452 0.918 1.018 0 0.582-0.445 0.873-0.918 1.089v-2.107z"></path>
<path fill="#ff6b09" d="M14.867 15.106c1.024 0.237 2.077 1.003 2.077 2.149 0 0.981-1.658 0.945-1.658 0 0-0.292-0.184-0.532-0.419-0.686v1.833c0.948 0.31 2.080 0.865 2.080 2.018 0 1.147-1.053 1.912-2.080 2.147-0.004 1.091-1.662 1.090-1.665-0.002-0.584-0.135-1.092-0.407-1.458-0.768-0.385-0.38-0.612-0.858-0.612-1.378 0-0.966 1.656-0.966 1.656 0 0 0.289 0.182 0.527 0.415 0.682v-1.831c-0.94-0.304-2.078-0.876-2.078-2.018 0-1.147 1.053-1.912 2.078-2.147 0.004-1.092 1.662-1.090 1.665 0.002zM13.452 15.109v0.199c-0.975 0.193-2.080 0.818-2.080 1.943 0 1.083 1.213 1.568 2.080 1.836v2.42c-0.469-0.214-0.914-0.503-0.914-1.087 0-0.638-1.159-0.638-1.159 0 0 0.451 0.201 0.867 0.539 1.199 0.43 0.425 0.951 0.628 1.533 0.743v0.201c0 0.768 1.166 0.768 1.166 0v-0.199c0.978-0.195 2.078-0.819 2.078-1.944 0-1.093-1.21-1.563-2.078-1.837v-2.418c0.47 0.214 0.918 0.503 0.918 1.090 0 0.622 1.157 0.647 1.157 0 0-1.125-1.099-1.75-2.075-1.945v-0.201c0-0.768-1.166-0.768-1.166 0z"></path>
<path fill="none" stroke="#ff6b09" stroke-linejoin="miter" stroke-linecap="butt" stroke-miterlimit="4" stroke-width="0.6154" d="M31.077 4.615v-4.308h-30.769v31.385h30.769v-4.308"></path>
</svg>
